<svg width="64" height="74" viewBox="0 0 64 74" fill="none" xmlns="http://www.w3.org/2000/svg">
<path d="M63.9739 18.7786V44.9078C63.9739 55.2784 55.5339 63.6863 45.1237 63.6863H43.217L33.4805 73.3795C33.0992 73.7594 32.5717 74 31.987 74C31.4467 74 30.9574 73.8037 30.5824 73.4745L30.4172 73.3099L30.4108 73.3036L20.7569 63.6863H18.8439C8.44003 63.6863 0 55.2784 0 44.9078V18.7786C0 8.40794 8.44003 0 18.8503 0H45.1237C55.5339 0 63.9739 8.40794 63.9739 18.7786Z" fill="#FFD666"/>
<path d="M15.2687 40.2196C13.4129 40.2196 12.3551 42.3263 13.4319 43.8474C17.6185 49.7727 24.5414 53.636 32.3637 53.636C40.186 53.636 47.1025 49.7664 51.2892 43.8474C52.3659 42.3263 51.3082 40.2196 49.4524 40.2196H15.2687Z" fill="white"/>
<path d="M26.1376 31.2524H14.9394V25.6262C14.9394 22.5204 17.4476 20 20.5385 20C23.6294 20 26.1376 22.5204 26.1376 25.6262V31.2524Z" fill="white"/>
<path d="M49.7885 31.2525H38.5903V25.6262C38.5903 22.5204 41.0985 20 44.1894 20C47.2803 20 49.7885 22.5204 49.7885 25.6262V31.2525Z" fill="white"/>
</svg>
